%TF.GenerationSoftware,KiCad,Pcbnew,9.0.0*%
%TF.CreationDate,2025-04-26T00:36:11+05:30*%
%TF.ProjectId,ftdi-updi-auto-v2,66746469-2d75-4706-9469-2d6175746f2d,rev?*%
%TF.SameCoordinates,Original*%
%TF.FileFunction,Copper,L1,Top*%
%TF.FilePolarity,Positive*%
%FSLAX46Y46*%
G04 Gerber Fmt 4.6, Leading zero omitted, Abs format (unit mm)*
G04 Created by KiCad (PCBNEW 9.0.0) date 2025-04-26 00:36:11*
%MOMM*%
%LPD*%
G01*
G04 APERTURE LIST*
G04 Aperture macros list*
%AMRoundRect*
0 Rectangle with rounded corners*
0 $1 Rounding radius*
0 $2 $3 $4 $5 $6 $7 $8 $9 X,Y pos of 4 corners*
0 Add a 4 corners polygon primitive as box body*
4,1,4,$2,$3,$4,$5,$6,$7,$8,$9,$2,$3,0*
0 Add four circle primitives for the rounded corners*
1,1,$1+$1,$2,$3*
1,1,$1+$1,$4,$5*
1,1,$1+$1,$6,$7*
1,1,$1+$1,$8,$9*
0 Add four rect primitives between the rounded corners*
20,1,$1+$1,$2,$3,$4,$5,0*
20,1,$1+$1,$4,$5,$6,$7,0*
20,1,$1+$1,$6,$7,$8,$9,0*
20,1,$1+$1,$8,$9,$2,$3,0*%
G04 Aperture macros list end*
%ADD10C,0.360000*%
%TA.AperFunction,NonConductor*%
%ADD11C,0.360000*%
%TD*%
%TA.AperFunction,SMDPad,CuDef*%
%ADD12RoundRect,0.150000X-0.825000X-0.150000X0.825000X-0.150000X0.825000X0.150000X-0.825000X0.150000X0*%
%TD*%
%TA.AperFunction,SMDPad,CuDef*%
%ADD13R,1.700000X1.400000*%
%TD*%
%TA.AperFunction,SMDPad,CuDef*%
%ADD14R,1.400000X1.700000*%
%TD*%
%TA.AperFunction,SMDPad,CuDef*%
%ADD15R,1.400000X1.900000*%
%TD*%
%TA.AperFunction,SMDPad,CuDef*%
%ADD16R,2.500000X1.700000*%
%TD*%
%TA.AperFunction,SMDPad,CuDef*%
%ADD17R,2.000000X1.000000*%
%TD*%
%TA.AperFunction,ViaPad*%
%ADD18C,1.200000*%
%TD*%
%TA.AperFunction,Conductor*%
%ADD19C,0.400000*%
%TD*%
G04 APERTURE END LIST*
D10*
D11*
X93999547Y-49383983D02*
X93999547Y-47583983D01*
X93999547Y-47583983D02*
X94685261Y-47583983D01*
X94685261Y-47583983D02*
X94856690Y-47669697D01*
X94856690Y-47669697D02*
X94942404Y-47755411D01*
X94942404Y-47755411D02*
X95028118Y-47926840D01*
X95028118Y-47926840D02*
X95028118Y-48183983D01*
X95028118Y-48183983D02*
X94942404Y-48355411D01*
X94942404Y-48355411D02*
X94856690Y-48441126D01*
X94856690Y-48441126D02*
X94685261Y-48526840D01*
X94685261Y-48526840D02*
X93999547Y-48526840D01*
X95799547Y-49383983D02*
X95799547Y-48183983D01*
X95799547Y-48526840D02*
X95885261Y-48355411D01*
X95885261Y-48355411D02*
X95970976Y-48269697D01*
X95970976Y-48269697D02*
X96142404Y-48183983D01*
X96142404Y-48183983D02*
X96313833Y-48183983D01*
X97170976Y-49383983D02*
X96999547Y-49298269D01*
X96999547Y-49298269D02*
X96913833Y-49212554D01*
X96913833Y-49212554D02*
X96828119Y-49041126D01*
X96828119Y-49041126D02*
X96828119Y-48526840D01*
X96828119Y-48526840D02*
X96913833Y-48355411D01*
X96913833Y-48355411D02*
X96999547Y-48269697D01*
X96999547Y-48269697D02*
X97170976Y-48183983D01*
X97170976Y-48183983D02*
X97428119Y-48183983D01*
X97428119Y-48183983D02*
X97599547Y-48269697D01*
X97599547Y-48269697D02*
X97685262Y-48355411D01*
X97685262Y-48355411D02*
X97770976Y-48526840D01*
X97770976Y-48526840D02*
X97770976Y-49041126D01*
X97770976Y-49041126D02*
X97685262Y-49212554D01*
X97685262Y-49212554D02*
X97599547Y-49298269D01*
X97599547Y-49298269D02*
X97428119Y-49383983D01*
X97428119Y-49383983D02*
X97170976Y-49383983D01*
X98456690Y-49298269D02*
X98628118Y-49383983D01*
X98628118Y-49383983D02*
X98970975Y-49383983D01*
X98970975Y-49383983D02*
X99142404Y-49298269D01*
X99142404Y-49298269D02*
X99228118Y-49126840D01*
X99228118Y-49126840D02*
X99228118Y-49041126D01*
X99228118Y-49041126D02*
X99142404Y-48869697D01*
X99142404Y-48869697D02*
X98970975Y-48783983D01*
X98970975Y-48783983D02*
X98713833Y-48783983D01*
X98713833Y-48783983D02*
X98542404Y-48698269D01*
X98542404Y-48698269D02*
X98456690Y-48526840D01*
X98456690Y-48526840D02*
X98456690Y-48441126D01*
X98456690Y-48441126D02*
X98542404Y-48269697D01*
X98542404Y-48269697D02*
X98713833Y-48183983D01*
X98713833Y-48183983D02*
X98970975Y-48183983D01*
X98970975Y-48183983D02*
X99142404Y-48269697D01*
X99999547Y-49383983D02*
X99999547Y-47583983D01*
X100770976Y-49383983D02*
X100770976Y-48441126D01*
X100770976Y-48441126D02*
X100685261Y-48269697D01*
X100685261Y-48269697D02*
X100513833Y-48183983D01*
X100513833Y-48183983D02*
X100256690Y-48183983D01*
X100256690Y-48183983D02*
X100085261Y-48269697D01*
X100085261Y-48269697D02*
X99999547Y-48355411D01*
X101628118Y-49383983D02*
X101628118Y-47583983D01*
X101628118Y-47583983D02*
X102313832Y-47583983D01*
X102313832Y-47583983D02*
X102485261Y-47669697D01*
X102485261Y-47669697D02*
X102570975Y-47755411D01*
X102570975Y-47755411D02*
X102656689Y-47926840D01*
X102656689Y-47926840D02*
X102656689Y-48183983D01*
X102656689Y-48183983D02*
X102570975Y-48355411D01*
X102570975Y-48355411D02*
X102485261Y-48441126D01*
X102485261Y-48441126D02*
X102313832Y-48526840D01*
X102313832Y-48526840D02*
X101628118Y-48526840D01*
X103685261Y-49383983D02*
X103513832Y-49298269D01*
X103513832Y-49298269D02*
X103428118Y-49126840D01*
X103428118Y-49126840D02*
X103428118Y-47583983D01*
X105142404Y-49383983D02*
X105142404Y-48441126D01*
X105142404Y-48441126D02*
X105056689Y-48269697D01*
X105056689Y-48269697D02*
X104885261Y-48183983D01*
X104885261Y-48183983D02*
X104542404Y-48183983D01*
X104542404Y-48183983D02*
X104370975Y-48269697D01*
X105142404Y-49298269D02*
X104970975Y-49383983D01*
X104970975Y-49383983D02*
X104542404Y-49383983D01*
X104542404Y-49383983D02*
X104370975Y-49298269D01*
X104370975Y-49298269D02*
X104285261Y-49126840D01*
X104285261Y-49126840D02*
X104285261Y-48955411D01*
X104285261Y-48955411D02*
X104370975Y-48783983D01*
X104370975Y-48783983D02*
X104542404Y-48698269D01*
X104542404Y-48698269D02*
X104970975Y-48698269D01*
X104970975Y-48698269D02*
X105142404Y-48612554D01*
X105828117Y-48183983D02*
X106256689Y-49383983D01*
X106685260Y-48183983D02*
X106256689Y-49383983D01*
X106256689Y-49383983D02*
X106085260Y-49812554D01*
X106085260Y-49812554D02*
X105999546Y-49898269D01*
X105999546Y-49898269D02*
X105828117Y-49983983D01*
D10*
D11*
X88989152Y-70520555D02*
X89846295Y-70520555D01*
X88817723Y-71034841D02*
X89417723Y-69234841D01*
X89417723Y-69234841D02*
X90017723Y-71034841D01*
X91389152Y-69834841D02*
X91389152Y-71034841D01*
X90617723Y-69834841D02*
X90617723Y-70777698D01*
X90617723Y-70777698D02*
X90703437Y-70949127D01*
X90703437Y-70949127D02*
X90874866Y-71034841D01*
X90874866Y-71034841D02*
X91132009Y-71034841D01*
X91132009Y-71034841D02*
X91303437Y-70949127D01*
X91303437Y-70949127D02*
X91389152Y-70863412D01*
X91989151Y-69834841D02*
X92674865Y-69834841D01*
X92246294Y-69234841D02*
X92246294Y-70777698D01*
X92246294Y-70777698D02*
X92332008Y-70949127D01*
X92332008Y-70949127D02*
X92503437Y-71034841D01*
X92503437Y-71034841D02*
X92674865Y-71034841D01*
X93532008Y-71034841D02*
X93360579Y-70949127D01*
X93360579Y-70949127D02*
X93274865Y-70863412D01*
X93274865Y-70863412D02*
X93189151Y-70691984D01*
X93189151Y-70691984D02*
X93189151Y-70177698D01*
X93189151Y-70177698D02*
X93274865Y-70006269D01*
X93274865Y-70006269D02*
X93360579Y-69920555D01*
X93360579Y-69920555D02*
X93532008Y-69834841D01*
X93532008Y-69834841D02*
X93789151Y-69834841D01*
X93789151Y-69834841D02*
X93960579Y-69920555D01*
X93960579Y-69920555D02*
X94046294Y-70006269D01*
X94046294Y-70006269D02*
X94132008Y-70177698D01*
X94132008Y-70177698D02*
X94132008Y-70691984D01*
X94132008Y-70691984D02*
X94046294Y-70863412D01*
X94046294Y-70863412D02*
X93960579Y-70949127D01*
X93960579Y-70949127D02*
X93789151Y-71034841D01*
X93789151Y-71034841D02*
X93532008Y-71034841D01*
X94903436Y-70349127D02*
X96274865Y-70349127D01*
X97732007Y-70091984D02*
X97132007Y-70091984D01*
X97132007Y-71034841D02*
X97132007Y-69234841D01*
X97132007Y-69234841D02*
X97989150Y-69234841D01*
X98417721Y-69234841D02*
X99446293Y-69234841D01*
X98932007Y-71034841D02*
X98932007Y-69234841D01*
X100046293Y-71034841D02*
X100046293Y-69234841D01*
X100046293Y-69234841D02*
X100474864Y-69234841D01*
X100474864Y-69234841D02*
X100732007Y-69320555D01*
X100732007Y-69320555D02*
X100903436Y-69491984D01*
X100903436Y-69491984D02*
X100989150Y-69663412D01*
X100989150Y-69663412D02*
X101074864Y-70006269D01*
X101074864Y-70006269D02*
X101074864Y-70263412D01*
X101074864Y-70263412D02*
X100989150Y-70606269D01*
X100989150Y-70606269D02*
X100903436Y-70777698D01*
X100903436Y-70777698D02*
X100732007Y-70949127D01*
X100732007Y-70949127D02*
X100474864Y-71034841D01*
X100474864Y-71034841D02*
X100046293Y-71034841D01*
X101846293Y-71034841D02*
X101846293Y-69234841D01*
X103989150Y-69149127D02*
X102446293Y-71463412D01*
X104589150Y-69234841D02*
X104589150Y-70691984D01*
X104589150Y-70691984D02*
X104674864Y-70863412D01*
X104674864Y-70863412D02*
X104760579Y-70949127D01*
X104760579Y-70949127D02*
X104932007Y-71034841D01*
X104932007Y-71034841D02*
X105274864Y-71034841D01*
X105274864Y-71034841D02*
X105446293Y-70949127D01*
X105446293Y-70949127D02*
X105532007Y-70863412D01*
X105532007Y-70863412D02*
X105617721Y-70691984D01*
X105617721Y-70691984D02*
X105617721Y-69234841D01*
X106474864Y-71034841D02*
X106474864Y-69234841D01*
X106474864Y-69234841D02*
X107160578Y-69234841D01*
X107160578Y-69234841D02*
X107332007Y-69320555D01*
X107332007Y-69320555D02*
X107417721Y-69406269D01*
X107417721Y-69406269D02*
X107503435Y-69577698D01*
X107503435Y-69577698D02*
X107503435Y-69834841D01*
X107503435Y-69834841D02*
X107417721Y-70006269D01*
X107417721Y-70006269D02*
X107332007Y-70091984D01*
X107332007Y-70091984D02*
X107160578Y-70177698D01*
X107160578Y-70177698D02*
X106474864Y-70177698D01*
X108274864Y-71034841D02*
X108274864Y-69234841D01*
X108274864Y-69234841D02*
X108703435Y-69234841D01*
X108703435Y-69234841D02*
X108960578Y-69320555D01*
X108960578Y-69320555D02*
X109132007Y-69491984D01*
X109132007Y-69491984D02*
X109217721Y-69663412D01*
X109217721Y-69663412D02*
X109303435Y-70006269D01*
X109303435Y-70006269D02*
X109303435Y-70263412D01*
X109303435Y-70263412D02*
X109217721Y-70606269D01*
X109217721Y-70606269D02*
X109132007Y-70777698D01*
X109132007Y-70777698D02*
X108960578Y-70949127D01*
X108960578Y-70949127D02*
X108703435Y-71034841D01*
X108703435Y-71034841D02*
X108274864Y-71034841D01*
X110074864Y-71034841D02*
X110074864Y-69234841D01*
D12*
%TO.P,U1,1,1Y*%
%TO.N,RX*%
X97920000Y-57150000D03*
%TO.P,U1,2,1Z*%
%TO.N,RX-T*%
X97920000Y-58420000D03*
%TO.P,U1,3,2Z*%
%TO.N,MODE-FTDI*%
X97920000Y-59690000D03*
%TO.P,U1,4,2Y*%
%TO.N,GND*%
X97920000Y-60960000D03*
%TO.P,U1,5,2E*%
%TO.N,DTR*%
X97920000Y-62230000D03*
%TO.P,U1,6,3E*%
X97920000Y-63500000D03*
%TO.P,U1,7,VSS*%
%TO.N,GND*%
X97920000Y-64770000D03*
%TO.P,U1,8,3Y*%
%TO.N,RX*%
X102870000Y-64770000D03*
%TO.P,U1,9,3Z*%
%TO.N,Net-(D1-A)*%
X102870000Y-63500000D03*
%TO.P,U1,10,4Z*%
%TO.N,Net-(D1-K)*%
X102870000Y-62230000D03*
%TO.P,U1,11,4Y*%
%TO.N,TX*%
X102870000Y-60960000D03*
%TO.P,U1,12,4E*%
%TO.N,DTR*%
X102870000Y-59690000D03*
%TO.P,U1,13,1E*%
%TO.N,MODE-FTDI*%
X102870000Y-58420000D03*
%TO.P,U1,14,VDD*%
%TO.N,VCC*%
X102870000Y-57150000D03*
%TD*%
D13*
%TO.P,R2,2*%
%TO.N,VCC*%
X93345000Y-63343000D03*
%TO.P,R2,1*%
%TO.N,MODE-FTDI*%
X93345000Y-59743000D03*
%TD*%
D14*
%TO.P,R1,1*%
%TO.N,Net-(D1-A)*%
X106352500Y-64891800D03*
%TO.P,R1,2*%
%TO.N,UPDI*%
X109752500Y-64891800D03*
%TD*%
D15*
%TO.P,D1,1,K*%
%TO.N,Net-(D1-K)*%
X106300000Y-62230000D03*
%TO.P,D1,2,A*%
%TO.N,Net-(D1-A)*%
X109600000Y-62230000D03*
%TD*%
D16*
%TO.P,J1,1*%
%TO.N,GND*%
X86995000Y-65405000D03*
%TO.P,J1,2*%
%TO.N,unconnected-(J1-Pad2)*%
X86995000Y-62865000D03*
%TO.P,J1,3*%
%TO.N,VCC*%
X86995000Y-60325000D03*
%TO.P,J1,4*%
%TO.N,TX*%
X86995000Y-57785000D03*
%TO.P,J1,5*%
%TO.N,RX*%
X86995000Y-55245000D03*
%TO.P,J1,6*%
%TO.N,DTR*%
X86995000Y-52705000D03*
%TD*%
D17*
%TO.P,J2,1*%
%TO.N,DTR*%
X113030000Y-52705000D03*
%TO.P,J2,2*%
%TO.N,RX-T*%
X113030000Y-55245000D03*
%TO.P,J2,3*%
%TO.N,TX*%
X113030000Y-57785000D03*
%TO.P,J2,4*%
%TO.N,VCC*%
X113030000Y-60325000D03*
%TO.P,J2,5*%
%TO.N,UPDI*%
X113030000Y-62865000D03*
%TO.P,J2,6*%
%TO.N,GND*%
X113030000Y-65405000D03*
%TD*%
D18*
%TO.N,VCC*%
X107950000Y-67542800D03*
X107950000Y-57150000D03*
%TO.N,RX*%
X98267000Y-55811000D03*
X104631924Y-65142800D03*
%TD*%
D19*
%TO.N,UPDI*%
X112343748Y-62865000D02*
X113030000Y-62865000D01*
X110316948Y-64891800D02*
X112343748Y-62865000D01*
X109752500Y-64891800D02*
X110316948Y-64891800D01*
%TO.N,GND*%
X97920000Y-65618476D02*
X97920000Y-64770000D01*
X98644324Y-66342800D02*
X97920000Y-65618476D01*
X110822200Y-66342800D02*
X98644324Y-66342800D01*
X113030000Y-65405000D02*
X111760000Y-65405000D01*
X111760000Y-65405000D02*
X110822200Y-66342800D01*
%TO.N,VCC*%
X85090000Y-60325000D02*
X86995000Y-60325000D01*
X115323388Y-65813612D02*
X113827000Y-67310000D01*
X115323388Y-61348388D02*
X115323388Y-65813612D01*
X114300000Y-60325000D02*
X115323388Y-61348388D01*
X113827000Y-67310000D02*
X85090000Y-67310000D01*
X113030000Y-60325000D02*
X114300000Y-60325000D01*
X84455000Y-66675000D02*
X84455000Y-60960000D01*
X85090000Y-67310000D02*
X84455000Y-66675000D01*
X84455000Y-60960000D02*
X85090000Y-60325000D01*
%TO.N,TX*%
X104775000Y-60960000D02*
X102870000Y-60960000D01*
X105244000Y-60491000D02*
X104775000Y-60960000D01*
X108058728Y-60491000D02*
X105244000Y-60491000D01*
X108722299Y-60491000D02*
X108058728Y-60491000D01*
X110158300Y-59055000D02*
X108722300Y-60491000D01*
X108722300Y-60491000D02*
X108722299Y-60491000D01*
X111428300Y-57785000D02*
X110793300Y-58420000D01*
X113030000Y-57785000D02*
X111428300Y-57785000D01*
X110793300Y-58420000D02*
X110158300Y-59055000D01*
%TO.N,VCC*%
X102870000Y-57150000D02*
X107950000Y-57150000D01*
%TO.N,RX*%
X104259124Y-64770000D02*
X102870000Y-64770000D01*
X104631924Y-65142800D02*
X104259124Y-64770000D01*
%TO.N,TX*%
X114797785Y-57785000D02*
X113030000Y-57785000D01*
X116371000Y-56211786D02*
X114797785Y-57785000D01*
X116371000Y-53008215D02*
X116371000Y-56211786D01*
X85090000Y-50800000D02*
X114162786Y-50800000D01*
X84455000Y-51435000D02*
X85090000Y-50800000D01*
X114162786Y-50800000D02*
X116371000Y-53008215D01*
X85345000Y-57785000D02*
X84455000Y-56895000D01*
X86995000Y-57785000D02*
X85345000Y-57785000D01*
X84455000Y-56895000D02*
X84455000Y-51435000D01*
%TO.N,Net-(D1-A)*%
X106938200Y-64891800D02*
X109600000Y-62230000D01*
X106352500Y-64891800D02*
X106938200Y-64891800D01*
X102870000Y-63500000D02*
X104960700Y-63500000D01*
X104960700Y-63500000D02*
X106352500Y-64891800D01*
%TO.N,RX*%
X97920000Y-56158000D02*
X97920000Y-57150000D01*
X98267000Y-55811000D02*
X97920000Y-56158000D01*
X92710000Y-55245000D02*
X94615000Y-57150000D01*
X94615000Y-57150000D02*
X97920000Y-57150000D01*
X86995000Y-55245000D02*
X92710000Y-55245000D01*
%TO.N,VCC*%
X91918000Y-63343000D02*
X93345000Y-63343000D01*
X88900000Y-60325000D02*
X91918000Y-63343000D01*
X86995000Y-60325000D02*
X88900000Y-60325000D01*
%TO.N,DTR*%
X115570000Y-53340000D02*
X114935000Y-52705000D01*
X111565514Y-56515000D02*
X114935000Y-56515000D01*
X115570000Y-55880000D02*
X115570000Y-53340000D01*
X108390514Y-59690000D02*
X111565514Y-56515000D01*
X114935000Y-52705000D02*
X113030000Y-52705000D01*
X102870000Y-59690000D02*
X108390514Y-59690000D01*
X114935000Y-56515000D02*
X115570000Y-55880000D01*
%TO.N,Net-(D1-K)*%
X106300000Y-62230000D02*
X102870000Y-62230000D01*
%TO.N,MODE-FTDI*%
X97867000Y-59743000D02*
X97920000Y-59690000D01*
X93345000Y-59743000D02*
X97867000Y-59743000D01*
X99982400Y-59690000D02*
X97920000Y-59690000D01*
X101252400Y-58420000D02*
X99982400Y-59690000D01*
X102870000Y-58420000D02*
X101252400Y-58420000D01*
%TO.N,RX-T*%
X98707800Y-58420000D02*
X97920000Y-58420000D01*
X101882800Y-55245000D02*
X98707800Y-58420000D01*
X113030000Y-55245000D02*
X101882800Y-55245000D01*
%TO.N,DTR*%
X97920000Y-63500000D02*
X97920000Y-62230000D01*
X113030000Y-52705000D02*
X100560100Y-52705000D01*
X100560100Y-52705000D02*
X86995000Y-52705000D01*
X99508600Y-62230000D02*
X100032000Y-61706600D01*
X97920000Y-62230000D02*
X99508600Y-62230000D01*
X102048600Y-59690000D02*
X102870000Y-59690000D01*
X100032000Y-61706600D02*
X102048600Y-59690000D01*
%TO.N,GND*%
X95676500Y-65405000D02*
X96311500Y-64770000D01*
X86995000Y-65405000D02*
X95676500Y-65405000D01*
X96311500Y-61701800D02*
X96311500Y-64770000D01*
X97053300Y-60960000D02*
X96311500Y-61701800D01*
X97920000Y-60960000D02*
X97053300Y-60960000D01*
X96311500Y-64770000D02*
X97920000Y-64770000D01*
%TD*%
M02*
